PathFileType	4	(X/Y/Z)	RBDS014\RBDS014runT25.trc
DataRate	CameraRate	NumFrames	NumMarkers	Units	OrigDataRate	OrigDataStartFrame	OrigNumFrames
150.000000	150.000000	4	33	mm	150.000000	0	4500
Frame#	Time	L.ASIS			L.Heel.Bottom			L.Heel.Lateral			L.Heel.Top			L.Iliac.Crest			L.MT1			L.MT5			L.PSIS			L.Shank.Bottom.Lateral			L.Shank.Bottom.Medial			L.Shank.Top.Lateral			L.Shank.Top.Medial			L.Thigh.Bottom.Lateral			L.Thigh.Bottom.Medial			L.Thigh.Top.Lateral			L.Thigh.Top.Medial			R.ASIS			R.ASY			R.Heel.Bottom			R.Heel.Lateral			R.Heel.Top			R.Iliac.Crest			R.MT1			R.MT5			R.PSIS			R.Shank.Bottom.Lateral			R.Shank.Bottom.Medial			R.Shank.Top.Lateral			R.Shank.Top.Medial			R.Thigh.Bottom.Lateral			R.Thigh.Bottom.Medial			R.Thigh.Top.Lateral			R.Thigh.Top.Medial			
		X1	Y1	Z1	X2	Y2	Z2	X3	Y3	Z3	X4	Y4	Z4	X5	Y5	Z5	X6	Y6	Z6	X7	Y7	Z7	X8	Y8	Z8	X9	Y9	Z9	X10	Y10	Z10	X11	Y11	Z11	X12	Y12	Z12	X13	Y13	Z13	X14	Y14	Z14	X15	Y15	Z15	X16	Y16	Z16	X17	Y17	Z17	X18	Y18	Z18	X19	Y19	Z19	X20	Y20	Z20	X21	Y21	Z21	X22	Y22	Z22	X23	Y23	Z23	X24	Y24	Z24	X25	Y25	Z25	X26	Y26	Z26	X27	Y27	Z27	X28	Y28	Z28	X29	Y29	Z29	X30	Y30	Z30	X31	Y31	Z31	X32	Y32	Z32	X33	Y33	Z33	

1	0	2141.500548554126	1077.237035526472	921.9929997439395	1469.394999759231	386.4708785383091	993.7910753227167	1487.620921323814	376.5038656611816	945.9800975367551	1519.582382863442	390.4524365130521	985.1907124587138	2083.910348032529	1144.697671519936	888.1456230324545	1549.094490688321	162.4193491409383	985.1127340819198	1508.633899825526	214.4183354521314	882.0200262260976	1962.278750906855	1092.237059681089	988.002129891434	1632.959699339293	386.2625307460964	902.1293580801848	1618.38314887769	420.7324087852041	944.7227179303018	1698.465861311014	432.6717698642526	890.3343453554314	1684.599950063426	465.9401934483851	930.6345370880217	2011.409159152304	686.3499114808849	859.8438894050061	1956.100515851077	692.1602597430916	907.3644677097794	2011.465705101612	796.412230335295	851.643688897778	1962.773301336736	802.2117948929152	899.8583134966267	2134.604987416837	1091.371589795366	1164.86260157688	2299.155128740651	91.24027306594242	1060.760627566665	2108.90072333222	26.65572705696089	1025.458825858372	2126.16439470662	49.08972243357585	1066.705552754435	2117.147547907833	78.24075771316622	1024.938848752246	2064.388563232713	1157.553751915697	1191.844423856518	2344.133067740306	50.56128948121373	1014.25171448772	2294.145094307394	38.30303563552594	1127.33964857892	1963.175451059975	1102.658414729817	1081.715610175379	2169.06280889271	177.6555959527683	1103.364054100444	2140.907677079436	191.246844367385	1062.442320986059	2165.738631290289	259.0440607485476	1129.920247935628	2136.304931551902	268.741606798404	1087.033123403063	2195.277536991334	693.2598267063627	1199.542086743919	2134.235907459292	669.0835020278004	1167.323326329985	2144.539277268106	788.6872642693158	1218.174987074863	2087.379121338252	766.8709436770665	1186.006611804474	
2	0.006666666666666667	2140.478934064127	1070.902166745001	922.5307106165579	1477.51687483486	393.5393829769747	993.1341110472512	1495.599430260386	383.7328442650067	945.4853003452284	1527.8041698264	396.585816455597	984.7591651914142	2083.055041162204	1137.372780268063	886.9737467795079	1552.639798876509	168.0630346084218	981.9482478762795	1513.514902532724	222.1738069315338	879.5216872928017	1960.261040735865	1084.381917864007	987.2847457370409	1641.488493650804	389.9772640735424	901.5967890731158	1627.86352871534	424.3452447534323	944.1808502439712	1708.145103020232	434.229730657231	889.8941595687825	1695.35619596529	467.5420965459871	930.3283582383939	2018.377287375412	679.4039449410391	860.1094094079243	1962.989438763738	683.8192573241832	907.5418886895141	2015.98117484097	789.3846868153061	852.0639590486588	1967.035489471262	793.9804918709843	900.1804444434971	2132.199609934134	1087.693302044409	1165.392720677638	2284.436344641152	90.56859185683909	1060.198508363866	2093.305998145835	27.51230215996048	1025.315452784336	2110.770653499556	50.00408669640977	1066.534813756389	2102.071466478944	79.06604296458583	1024.689907624685	2062.281852445018	1150.402111043861	1192.31721192681	2329.283609504978	50.30062737212259	1014.118920746535	2279.000048656256	38.51939337057807	1127.60866689809	1960.778028668959	1096.024339739191	1080.344144684125	2158.234373126225	178.7993649251825	1103.278432748447	2130.613967843235	193.4603201122194	1062.502549851447	2158.035695619186	260.0524745513295	1130.032596358843	2128.962781060322	270.8285267790297	1087.172875899396	2195.265604750918	690.6971810642511	1200.192824968231	2134.879440677744	666.1155375405118	1167.272905497935	2143.792646850902	785.8021494027788	1218.649527123365	2086.890743462369	763.6019295334963	1186.100749558599	
3	0.01333333333333333	2139.380296400748	1064.605673430341	923.0347813996869	1485.819935661515	400.3765609852435	992.3897758625451	1503.814486314211	390.7222750208071	944.9033866364886	1536.205429283718	402.5331075744929	984.2707938732757	2082.088126453115	1130.103023080653	885.7866794958873	1556.610461117926	173.553579969638	978.877299627113	1518.863358372186	229.6678511620718	877.0542280937153	1958.223003621119	1076.689635305501	986.5617247403329	1650.258067382668	393.566838643612	901.0602063917964	1637.557708027827	427.8403293491405	943.6409437222817	1718.031945392285	435.7178184810259	889.4672314175396	1706.295349642834	469.0611730872291	930.0367984461817	2025.400422853772	672.5756489973053	860.4007556151547	1969.937488021312	675.5799051410289	907.7256002747436	2020.529645177301	782.4538877609582	852.5012241658632	1971.329087048557	785.8301482383439	900.4968375560568	2129.837114669977	1084.140335277512	1165.879519058917	2269.601216856353	89.90873258180767	1059.681102408652	2077.631477254433	28.34391366458331	1025.188077281664	2095.290367502459	50.88598252191193	1066.380572808503	2086.897015657744	79.86577506788745	1024.464454446258	2060.11550202511	1143.410373210458	1192.753735338767	2314.313488050676	50.05357214210568	1014.017126129773	2263.741900146318	38.69818407901131	1127.876547272317	1958.423521938074	1089.554083579002	1078.990699989174	2147.210822314769	179.8673484677463	1103.22611969949	2120.123083401373	195.582359450871	1062.590261007596	2150.076739653989	260.9668516890937	1130.176313038755	2121.366174402393	272.8036124520977	1087.343612225682	2195.037428184036	688.1278621027021	1200.858734230754	2135.23399960644	663.1942095876033	1167.308087676532	2142.934714768422	782.9623470490997	1219.14080021223	2086.259314186621	760.4331579205382	1186.241655909328	
4	0.02	2138.126361987552	1058.387457681128	923.4625644058112	1494.463675505202	406.7926154556902	991.4684747250145	1512.473959578534	397.2701453522269	944.1474159703238	1544.946399460697	408.1419701143731	983.6650961877397	2080.893372190468	1122.943015539433	884.5706541798215	1561.373407246947	178.7567018428923	975.9864083662038	1525.084188036091	236.6656498179344	874.6442400114357	1956.147833238292	1069.309526876735	985.8406574833052	1659.484484957373	396.9274926260051	900.5128390533523	1647.659178660285	431.1195405399853	943.1023703490905	1728.316702731847	437.0784852622459	889.0646137568281	1717.585216387096	470.4290547579432	929.773571723392	2032.531167930301	665.9644743261582	860.74401928592	1976.998885301152	667.5275513018402	907.9259990491377	2025.137408474078	775.7023401272788	852.9749049007762	1975.682581092565	777.8280076721474	900.8107393303655	2127.562199541987	1080.818295168348	1166.272853497447	2254.548325622342	89.26941405981121	1059.248322777703	2061.809349422256	29.12234851184051	1025.091185124824	2079.648689498434	51.7014566972511	1066.257604669682	2071.538702168341	80.6117242909593	1024.283389826796	2057.848797394219	1136.740597064669	1193.116359935141	2299.119383901954	49.83261045117358	1013.976999098547	2248.274465091236	38.80736188289637	1128.144174821795	1956.14936930842	1083.400643988361	1077.680678943916	2135.823468465011	180.7887754267447	1103.238827339618	2109.262976506598	197.5286585412288	1062.732708734076	2141.638860429186	261.6990580067203	1130.381311669291	2113.293634912269	274.5638351519371	1087.575445713735	2194.40615441817	685.5425192352415	1201.556516951578	2135.046090624619	660.3549213392751	1167.512665150019	2141.870526601815	780.2046522214511	1219.665840873395	2085.358333318681	757.4478413275041	1186.478003861275	
